<svg xmlns="http://www.w3.org/2000/svg" version="1.0" width="286.000000" height="286.000000" preserveAspectRatio="xMidYMid meet" style=""><rect id="backgroundrect" width="100%" height="100%" x="0" y="0" fill="none" stroke="none"/>


<g class="currentLayer" style=""><title>Layer 1</title><g transform="translate(0,286) scale(0.10000000149011612,-0.10000000149011612) " fill="#ffffff" stroke="none" id="svg_1" class="selected" fill-opacity="1">
<path d="M1239 2759 c-35 -19 -52 -21 -236 -34 -60 -5 -96 -12 -104 -21 -8 -10 -23 -12 -49 -8 -33 5 -39 3 -59 -24 -11 -17 -21 -32 -21 -35 0 -3 15 -10 33 -17 l32 -12 -32 -14 c-38 -16 -43 -34 -10 -34 31 0 38 -9 27 -30 -13 -24 23 -56 58 -52 36 5 96 62 81 76 -8 8 -13 7 -16 -1 -3 -7 -10 -13 -15 -13 -6 0 -8 3 -5 7 11 10 -34 53 -56 53 -37 0 -10 25 34 31 37 5 40 7 22 14 -13 4 -23 11 -23 16 0 14 28 11 54 -6 22 -15 27 -14 65 5 63 33 82 7 35 -49 -24 -29 -24 -31 -8 -56 14 -21 23 -25 53 -23 25 2 39 10 47 26 22 45 33 49 54 22 19 -25 19 -25 -1 -40 -13 -10 -18 -22 -13 -33 8 -21 76 -40 114 -32 42 9 44 -8 5 -43 -23 -20 -31 -32 -23 -36 10 -3 8 -9 -4 -19 -21 -17 -23 -50 -5 -65 14 -12 149 -24 171 -16 13 5 11 44 -3 44 -4 0 -19 25 -35 55 -15 30 -32 57 -37 60 -16 10 -10 25 10 25 11 0 23 5 26 10 8 14 48 13 62 -1 9 -9 12 -7 10 9 0 12 -7 24 -14 26 -19 8 -16 28 4 24 9 -2 17 -11 19 -21 1 -10 10 -27 20 -38 16 -18 15 -19 -15 -36 -36 -21 -39 -38 -11 -55 12 -7 32 -37 47 -65 17 -37 31 -53 45 -53 12 0 17 4 12 12 -5 8 3 9 29 5 38 -6 52 8 40 41 -4 11 4 7 22 -11 28 -27 28 -30 14 -55 -10 -19 -24 -28 -45 -30 -28 -3 -31 -6 -28 -33 5 -40 11 -48 32 -43 9 3 38 -6 65 -20 26 -14 47 -22 47 -17 0 5 14 11 31 15 27 5 30 9 24 28 -3 13 -7 30 -7 38 0 8 -10 25 -22 38 l-21 23 55 -3 c52 -3 55 -4 55 -30 0 -15 6 -33 13 -39 6 -7 12 -19 12 -26 0 -7 7 -13 15 -13 11 0 14 -7 9 -25 -4 -17 -2 -25 7 -25 11 0 11 -3 -1 -10 -20 -13 -4 -13 21 0 10 6 19 8 19 4 0 -13 -47 -50 -59 -46 -7 2 -27 1 -46 -2 -30 -6 -32 -9 -26 -33 4 -15 21 -34 39 -43 29 -16 37 -16 79 -4 25 8 53 23 61 35 11 16 23 20 53 17 25 -2 40 1 43 9 7 17 86 -25 86 -45 0 -11 -11 -13 -50 -10 -48 5 -50 4 -50 -21 0 -14 7 -34 14 -44 15 -20 81 -30 106 -17 8 5 27 6 42 3 25 -5 26 -6 11 -22 -11 -10 -18 -12 -20 -4 -3 8 -12 7 -31 -3 -15 -8 -33 -14 -41 -14 -11 0 -11 -3 -1 -15 10 -12 10 -15 0 -15 -6 0 5 -15 26 -32 21 -18 48 -43 60 -55 11 -13 28 -23 37 -23 9 0 18 -4 22 -9 3 -5 19 -12 35 -16 23 -5 37 -1 63 19 19 14 41 26 51 26 9 0 21 11 26 25 8 21 16 25 53 25 47 0 64 -12 85 -62 14 -34 6 -35 -27 -4 -15 14 -39 28 -56 32 -29 7 -29 6 -14 -12 9 -10 15 -24 12 -30 -2 -6 8 -17 23 -24 14 -8 30 -22 35 -32 5 -10 16 -18 24 -18 15 0 20 -12 9 -23 -4 -3 -32 11 -63 31 -59 39 -116 51 -152 32 -21 -12 -27 -60 -6 -60 7 0 26 -13 41 -29 16 -16 33 -28 40 -25 12 5 14 -45 3 -63 -4 -6 -7 -26 -7 -45 0 -18 -2 -51 -6 -74 -8 -54 15 -65 62 -29 18 14 42 25 53 25 26 0 26 -3 1 71 -20 59 -20 62 -3 75 27 21 33 17 33 -21 0 -39 21 -55 44 -36 10 9 21 9 41 -1 24 -11 29 -10 41 7 17 22 18 41 4 50 -7 4 -8 11 -1 18 12 16 -35 134 -60 148 -11 5 -19 16 -19 24 0 8 -18 31 -39 50 -26 24 -37 41 -34 54 5 18 -35 93 -57 106 -7 5 -9 20 -5 41 5 27 2 37 -16 51 -86 70 -106 97 -139 188 -16 45 -42 58 -92 45 -55 -15 -72 3 -91 95 -13 65 -16 71 -50 89 -23 12 -37 27 -37 39 0 13 -5 17 -16 13 -20 -8 -104 13 -125 30 -18 17 -49 18 -49 3 0 -5 -16 -17 -35 -25 -43 -18 -45 -18 -45 2 0 9 -6 28 -14 42 -8 15 -17 35 -20 45 -3 11 -15 17 -33 17 -15 0 -43 9 -61 20 -25 15 -42 19 -71 14 -37 -6 -40 -4 -77 44 -38 48 -40 50 -104 56 -36 3 -75 6 -86 6 -12 0 -29 9 -39 20 -22 25 -67 24 -116 -1z m-92 -139 c15 -23 6 -31 -24 -19 -23 8 -29 20 -16 32 12 12 28 7 40 -13z m783 -359 c0 -12 -28 -22 -34 -12 -3 5 -3 11 1 15 9 9 33 7 33 -3z m153 -103 c-3 -6 -12 -3 -20 5 -9 9 -12 20 -8 28 6 9 11 8 21 -6 7 -10 11 -22 7 -27z m196 16 c2 -2 6 -23 8 -47 5 -38 2 -47 -18 -61 -13 -9 -38 -16 -57 -16 -20 0 -31 -4 -27 -10 11 -18 -11 -11 -29 9 -16 18 -16 21 6 67 24 52 60 77 93 68 11 -4 22 -8 24 -10z m191 -179 c0 -52 -3 -64 -17 -67 -13 -2 -8 -9 20 -25 57 -34 45 -66 -15 -39 -18 8 -51 17 -73 21 -51 8 -145 62 -145 82 0 11 5 13 18 8 65 -28 132 -47 146 -42 12 5 16 20 16 57 0 64 15 97 36 79 9 -8 14 -32 14 -74z m-503 69 c-3 -3 -12 -4 -19 -1 -8 3 -5 6 6 6 11 1 17 -2 13 -5z m582 -200 c-9 -11 -15 -12 -23 -4 -8 8 -7 13 4 20 20 12 33 1 19 -16z m149 -228 c3 -12 -1 -17 -10 -14 -7 3 -15 13 -16 22 -3 12 1 17 10 14 7 -3 15 -13 16 -22z m-125 -54 c20 -18 22 -32 4 -32 -17 0 -59 44 -51 53 8 7 20 1 47 -21z" id="svg_2" fill="#ffffff" fill-opacity="1"/>
<path d="M619 2653 c-1 -5 -1 -11 0 -15 0 -5 -8 -8 -18 -8 -23 0 -36 -16 -21 -25 6 -4 8 -10 5 -15 -3 -5 0 -18 7 -29 11 -18 9 -24 -15 -49 -15 -15 -27 -31 -27 -34 0 -6 56 -28 72 -28 5 0 7 9 3 19 -4 13 0 23 12 30 17 9 17 10 -1 24 -21 16 -14 37 13 37 18 0 41 18 41 33 0 5 -13 6 -30 2 -34 -7 -38 0 -13 27 15 17 15 20 3 28 -18 12 -30 12 -31 3z" id="svg_3" fill="#ffffff" fill-opacity="1"/>
<path d="M414 2557 c-34 -29 -44 -76 -16 -79 38 -3 76 4 99 19 26 18 22 34 -7 26 -11 -3 -27 -2 -36 1 -13 5 -14 9 -4 22 9 10 10 18 3 25 -7 7 -20 2 -39 -14z" id="svg_4" fill="#ffffff" fill-opacity="1"/>
<path d="M360 2509 c0 -5 5 -7 10 -4 6 3 10 8 10 11 0 2 -4 4 -10 4 -5 0 -10 -5 -10 -11z" id="svg_5" fill="#ffffff" fill-opacity="1"/>
<path d="M687 2505 c-4 -8 -2 -17 3 -20 6 -4 10 -4 10 -1 0 2 3 11 6 20 3 9 2 16 -4 16 -5 0 -12 -7 -15 -15z" id="svg_6" fill="#ffffff" fill-opacity="1"/>
<path d="M1008 2482 l-36 -37 29 -23 c16 -13 29 -30 29 -38 0 -8 5 -14 11 -14 7 0 9 9 5 23 -5 20 0 27 34 43 22 10 40 25 40 32 0 11 -58 53 -70 51 -3 -1 -22 -17 -42 -37z" id="svg_7" fill="#ffffff" fill-opacity="1"/>
<path d="M257 2434 c-36 -24 -49 -54 -24 -54 16 -1 -23 -30 -40 -30 -7 0 -13 7 -13 15 0 8 -4 15 -9 15 -14 0 -58 -46 -75 -78 -33 -63 -61 -242 -38 -242 4 0 8 -24 8 -52 2 -72 14 -125 29 -138 10 -8 24 -6 54 10 l41 20 6 -24 c3 -13 5 -37 3 -52 -5 -68 0 -80 39 -97 20 -8 50 -18 65 -22 48 -10 74 -45 82 -111 16 -129 44 -153 152 -130 43 9 78 10 98 5 40 -11 99 -74 115 -122 16 -50 40 -62 96 -47 53 15 141 6 166 -17 24 -21 23 -46 -6 -134 -39 -120 -47 -156 -76 -334 -16 -93 -37 -217 -48 -275 -20 -104 -35 -201 -47 -292 -5 -42 -3 -50 25 -81 20 -23 45 -38 75 -46 25 -6 73 -25 106 -41 59 -28 63 -29 112 -16 l52 13 -3 164 c-5 208 22 392 74 511 19 42 34 91 34 110 0 18 11 65 24 103 28 79 76 130 133 141 18 3 36 10 39 15 3 5 14 9 25 9 11 0 17 5 14 10 -3 6 3 10 13 10 11 0 20 6 19 13 -1 42 8 62 48 103 25 25 45 47 45 49 0 2 -8 4 -17 4 -69 2 -88 7 -91 25 -2 11 -11 26 -18 34 -12 12 -17 12 -32 0 -9 -7 -20 -17 -23 -21 -3 -4 -18 -3 -33 3 -22 8 -31 7 -43 -5 -14 -14 -17 -14 -33 0 -9 8 -24 13 -32 10 -9 -4 -18 0 -21 9 -4 10 2 18 16 23 21 7 28 8 73 12 12 0 33 12 47 25 35 32 31 64 -17 136 -20 30 -36 59 -36 63 0 5 -6 7 -14 4 -7 -3 -17 -2 -22 3 -5 5 -24 10 -43 12 -25 2 -36 -2 -45 -17 -6 -11 -12 -22 -13 -24 -8 -14 -33 27 -33 54 0 32 -33 75 -44 57 -9 -15 -68 -23 -82 -11 -15 12 -35 -2 -47 -33 -4 -11 -18 -18 -34 -19 -15 -1 -35 -2 -42 -3 -18 -1 -81 -82 -81 -102 0 -8 11 -19 24 -24 31 -12 43 -47 23 -68 -14 -14 -17 -12 -28 14 -23 57 -32 73 -39 69 -4 -3 -10 5 -13 16 -4 16 -11 19 -26 14 -26 -8 -28 10 -3 25 11 7 13 13 5 16 -9 4 -9 13 -1 36 8 23 8 36 -1 49 -6 10 -11 28 -11 39 0 25 -9 26 -25 3 -12 -15 -19 -16 -56 -6 -24 6 -48 8 -54 3 -5 -4 -21 -10 -35 -12 -17 -2 -24 -8 -22 -20 2 -10 -1 -18 -6 -18 -12 0 -37 48 -29 56 9 10 -16 32 -30 27 -8 -3 -13 4 -13 18 l0 24 -18 -25 c-9 -14 -26 -35 -36 -48 -19 -20 -21 -20 -38 -5 -17 15 -16 17 5 47 46 64 48 73 25 112 -12 20 -21 49 -20 65 1 24 -3 29 -23 29 -29 0 -55 9 -55 20 0 4 21 3 47 -1 52 -10 56 -9 47 15 -6 15 -14 17 -53 10 -25 -4 -54 -7 -64 -6 -10 0 -20 -6 -23 -14 -14 -45 -15 -47 -25 -37 -7 7 -5 23 7 51 19 50 13 82 -12 61 -13 -11 -41 -15 -70 -10 -4 1 -1 8 7 17 8 10 21 13 36 10 18 -5 24 -1 29 19 3 14 7 25 8 25 1 0 19 -9 41 -20 22 -11 45 -20 52 -20 6 0 18 -8 25 -17 19 -26 36 -26 65 -3 19 15 35 19 55 15 33 -8 60 9 51 31 -3 8 1 21 8 30 11 13 10 17 -4 25 -25 14 -21 29 7 29 23 0 44 16 33 26 -2 3 -28 7 -56 11 -35 4 -55 12 -61 24 -10 17 -12 17 -40 1 -16 -9 -30 -20 -30 -23 0 -4 16 -19 35 -33 24 -18 42 -25 55 -21 14 5 20 2 20 -9 0 -12 -10 -16 -36 -16 -44 0 -94 42 -95 80 0 20 -2 22 -8 7 -3 -10 -16 -23 -27 -30 -12 -7 -33 -20 -47 -30 -33 -24 -55 -13 -31 14 21 24 26 47 14 68 -8 13 -9 12 -10 -6 0 -27 -18 -40 -26 -19 -9 24 -38 19 -68 -11 -21 -21 -29 -24 -36 -14 -5 9 -20 12 -41 9 -41 -6 -63 16 -47 46 8 14 12 16 18 6 6 -10 15 -8 41 7 19 11 54 23 78 26 34 4 50 13 68 36 14 17 30 31 36 31 7 0 21 7 31 15 18 14 15 14 -32 11 -28 -3 -60 -10 -71 -15 -34 -19 -46 -12 -22 13 32 34 12 40 -32 10z m-11 -226 c-3 -7 -9 -21 -12 -30 -4 -10 -13 -18 -21 -18 -8 0 -25 -12 -38 -26 -19 -20 -25 -23 -25 -11 0 9 18 29 40 43 22 15 40 33 40 40 0 8 5 14 11 14 6 0 8 -6 5 -12z m211 5 c-4 -3 -2 -12 4 -20 9 -9 8 -13 0 -13 -6 0 -11 5 -11 10 0 6 -7 10 -15 10 -8 0 -15 5 -15 10 0 6 10 10 22 10 12 0 18 -3 15 -7z m-349 -68 c-10 -21 -28 -35 -28 -21 0 18 22 56 30 51 6 -4 5 -15 -2 -30z m192 31 c0 -3 -4 -8 -10 -11 -5 -3 -10 -1 -10 4 0 6 5 11 10 11 6 0 10 -2 10 -4z m-79 -219 c-6 -15 -14 -27 -19 -27 -19 0 -21 14 -6 42 19 38 40 24 25 -15z m141 -149 c-7 -7 -12 -8 -12 -2 0 14 12 26 19 19 2 -3 -1 -11 -7 -17z m148 -118 c0 -5 -6 -10 -12 -11 -10 0 -10 -2 0 -6 14 -6 17 -43 2 -43 -12 0 -41 55 -33 64 10 10 43 7 43 -4z m160 -35 c11 -13 11 -20 0 -40 -15 -28 -60 -35 -60 -10 0 8 7 15 15 15 17 0 20 16 5 25 -13 8 -3 25 14 25 8 0 19 -7 26 -15z m576 -80 c-2 -25 0 -47 5 -50 4 -3 6 -12 3 -20 -3 -8 3 -27 14 -42 11 -15 23 -38 26 -50 11 -34 -12 -29 -32 7 -21 36 -25 37 -42 5 -7 -14 -22 -25 -32 -25 -20 0 -25 -29 -7 -47 15 -15 1 -36 -18 -29 -10 4 -13 1 -8 -13 5 -17 2 -19 -20 -17 -15 2 -31 9 -36 17 -6 10 -9 10 -9 2 0 -7 -7 -13 -15 -13 -35 0 0 49 35 50 12 0 15 8 12 34 -3 28 -9 35 -34 40 -35 7 -28 26 10 26 15 0 34 6 42 13 19 15 53 67 44 67 -4 0 -2 6 4 13 5 6 13 27 17 45 5 23 12 32 26 32 17 0 19 -6 15 -45z m-430 -11 c2 -46 -30 -101 -63 -107 -28 -5 -43 5 -43 31 0 7 5 10 12 6 6 -4 8 -3 4 4 -3 6 1 18 10 27 13 13 19 14 25 4 5 -9 11 -8 23 4 15 15 15 17 0 25 -19 11 -20 22 -2 33 21 14 33 5 34 -27z m11 -215 c-6 -10 -15 -15 -20 -10 -12 12 3 40 18 34 11 -4 12 -9 2 -24z m133 27 c0 -11 -19 -15 -25 -6 -3 5 1 10 9 10 9 0 16 -2 16 -4z m360 -16 c0 -5 -5 -10 -11 -10 -5 0 -7 5 -4 10 3 6 8 10 11 10 2 0 4 -4 4 -10z m165 -31 c11 -17 -1 -21 -15 -4 -8 9 -8 15 -2 15 6 0 14 -5 17 -11z m-51 -34 c12 -9 15 -15 7 -15 -11 0 -11 -3 -1 -15 16 -20 2 -38 -26 -32 -26 5 -43 -20 -19 -29 8 -4 15 -12 15 -19 0 -23 -20 -28 -39 -11 -18 17 -24 46 -9 46 4 0 8 6 8 13 0 7 8 22 18 33 10 11 17 25 14 32 -5 16 9 15 32 -3z m-279 -26 c11 -17 -1 -21 -15 -4 -8 9 -8 15 -2 15 6 0 14 -5 17 -11z" id="svg_8" fill="#ffffff" fill-opacity="1"/>
<path d="M750 1501 c0 -6 4 -13 10 -16 6 -3 7 1 4 9 -7 18 -14 21 -14 7z" id="svg_9" fill="#ffffff" fill-opacity="1"/>
<path d="M1118 2433 c-19 -9 -28 -22 -28 -38 0 -14 -8 -29 -20 -35 -30 -16 -43 -46 -29 -71 10 -20 16 -21 73 -14 33 4 69 7 79 7 24 -1 22 29 -4 57 -24 25 -24 25 16 38 48 15 43 38 -11 57 -26 9 -48 16 -48 15 -1 -1 -13 -8 -28 -16z" id="svg_10" fill="#ffffff" fill-opacity="1"/>
<path d="M632 2418 c-17 -17 -15 -32 6 -51 25 -23 70 -31 87 -17 20 17 20 64 0 56 -8 -3 -30 1 -48 9 -26 11 -37 11 -45 3z" id="svg_11" fill="#ffffff" fill-opacity="1"/>
<path d="M417 2394 c-4 -4 -7 -15 -7 -24 0 -10 -7 -23 -16 -31 -14 -12 -14 -14 2 -26 27 -20 52 -16 100 15 53 33 58 58 12 59 -18 0 -44 4 -58 8 -14 3 -29 3 -33 -1z" id="svg_12" fill="#ffffff" fill-opacity="1"/>
<path d="M794 2357 c-21 -25 -23 -32 -12 -46 30 -38 58 -41 117 -9 l40 21 -27 31 c-37 43 -84 44 -118 3z" id="svg_13" fill="#ffffff" fill-opacity="1"/>
<path d="M592 2289 c2 -7 10 -15 17 -17 8 -3 12 1 9 9 -2 7 -10 15 -17 17 -8 3 -12 -1 -9 -9z" id="svg_14" fill="#ffffff" fill-opacity="1"/>
<path d="M1310 2259 c0 -6 11 -25 25 -44 53 -69 163 -51 165 28 0 4 -9 7 -20 7 -11 0 -20 4 -20 8 0 5 -34 9 -75 10 -46 1 -75 -3 -75 -9z" id="svg_15" fill="#ffffff" fill-opacity="1"/>
<path d="M890 2251 c0 -6 -12 -17 -27 -24 l-26 -14 29 -14 c15 -8 34 -24 40 -37 l12 -23 36 37 c20 20 36 40 36 44 0 9 -38 27 -72 34 -16 4 -28 2 -28 -3z" id="svg_16" fill="#ffffff" fill-opacity="1"/>
<path d="M741 2171 c-12 -16 -21 -35 -21 -43 0 -15 63 -68 82 -68 7 0 28 19 47 41 37 45 31 62 -21 52 -31 -6 -62 13 -54 34 9 24 -12 14 -33 -16z" id="svg_17" fill="#ffffff" fill-opacity="1"/>
<path d="M1064 2172 c-17 -15 -39 -32 -50 -39 -17 -11 -16 -12 12 -12 33 -1 48 -19 38 -46 -5 -13 -2 -14 20 -6 19 8 27 7 33 -3 6 -10 16 -9 48 8 22 12 41 26 41 31 1 6 12 15 25 22 19 10 21 13 7 18 -9 4 -19 17 -22 30 -5 20 -12 23 -63 23 -49 1 -63 -3 -89 -26z" id="svg_18" fill="#ffffff" fill-opacity="1"/>
<path d="M800 2180 c0 -5 5 -10 11 -10 5 0 7 5 4 10 -3 6 -8 10 -11 10 -2 0 -4 -4 -4 -10z" id="svg_19" fill="#ffffff" fill-opacity="1"/>
<path d="M1487 2129 c-30 -23 -80 -25 -101 -4 -19 20 -32 19 -16 0 11 -13 10 -19 -7 -38 -19 -22 -21 -67 -2 -67 16 0 10 -18 -13 -40 -26 -24 -21 -25 21 -4 24 12 36 13 44 5 6 -6 15 -7 21 -2 6 5 28 11 48 15 29 5 41 3 56 -12 16 -16 22 -17 37 -6 16 12 16 16 2 53 -14 33 -14 40 -2 44 22 9 6 41 -30 59 -32 16 -35 16 -58 -3z" id="svg_20" fill="#ffffff" fill-opacity="1"/>
<path d="M1660 2082 c0 -10 -5 -23 -11 -29 -7 -7 -8 -19 -4 -30 5 -10 10 -29 11 -42 4 -29 4 -30 42 -41 25 -7 36 -4 57 12 20 15 23 23 15 38 -6 10 -10 26 -10 34 0 20 -35 56 -54 56 -8 0 -18 5 -21 10 -10 16 -25 11 -25 -8z" id="svg_21" fill="#ffffff" fill-opacity="1"/>
<path d="M871 2054 c-17 -19 -31 -45 -32 -57 0 -12 -2 -30 -4 -40 -2 -13 1 -17 11 -13 8 3 14 -1 14 -8 0 -17 17 -24 49 -22 17 1 30 12 44 39 10 20 26 37 35 37 11 0 13 3 6 8 -6 4 -14 16 -18 27 -3 11 -21 30 -40 42 l-35 22 -30 -35z" id="svg_22" fill="#ffffff" fill-opacity="1"/>
<path d="M568 1998 c-31 -11 -38 -47 -14 -68 8 -6 22 -33 31 -59 18 -56 46 -75 90 -63 18 5 50 3 85 -5 52 -12 56 -12 73 8 9 12 17 30 17 40 0 15 -7 18 -37 16 -21 -1 -39 3 -39 8 -4 25 -17 55 -25 55 -5 0 -9 5 -9 10 0 6 8 10 18 8 10 -2 17 3 17 12 0 11 -9 14 -34 12 -21 -1 -41 4 -53 15 -22 19 -80 25 -120 11z m89 -28 c-4 -27 -17 -38 -17 -13 0 18 8 33 17 33 1 0 2 -9 0 -20z" id="svg_23" fill="#ffffff" fill-opacity="1"/>
<path d="M1201 1992 c0 -7 -14 -18 -31 -23 -16 -6 -30 -15 -30 -20 0 -5 -4 -9 -10 -9 -5 0 -10 6 -10 14 0 8 -11 13 -29 12 -20 -1 -27 -5 -23 -15 3 -9 1 -12 -6 -7 -7 4 -20 2 -29 -3 -10 -6 -15 -11 -10 -11 4 0 0 -11 -8 -24 -14 -20 -14 -28 -3 -45 7 -12 16 -21 20 -21 5 0 8 -7 8 -15 0 -8 9 -15 19 -15 11 0 21 -5 23 -11 5 -16 108 -17 125 -1 7 8 11 18 7 23 -3 6 -1 15 4 22 5 7 10 19 11 27 0 8 3 26 5 40 2 14 -2 32 -9 40 -7 8 -15 24 -18 35 -2 11 -5 14 -6 7z" id="svg_24" fill="#ffffff" fill-opacity="1"/>
<path d="M1830 1937 c0 -5 -9 -7 -19 -4 -12 3 -22 -1 -25 -9 -7 -18 3 -44 18 -44 7 0 7 -3 -2 -8 -9 -7 -8 -13 8 -27 11 -10 20 -26 20 -37 0 -14 5 -17 24 -12 14 3 29 0 39 -10 30 -30 66 10 45 49 -14 24 -108 113 -108 102z" id="svg_25" fill="#ffffff" fill-opacity="1"/>
<path d="M1981 1921 c-11 -7 -11 -14 0 -46 8 -21 18 -39 24 -40 5 -1 25 -7 44 -13 37 -12 71 -2 71 23 0 7 -15 30 -34 49 -34 36 -74 47 -105 27z" id="svg_26" fill="#ffffff" fill-opacity="1"/>
<path d="M1526 1885 c-17 -13 -18 -15 -3 -15 9 0 16 -4 15 -9 -4 -12 68 -61 89 -61 8 0 37 -23 64 -52 39 -42 51 -50 61 -40 10 10 10 15 -2 22 -11 8 -12 12 -3 18 6 4 11 22 11 39 -1 35 -28 66 -68 78 -13 4 -30 14 -38 21 -16 16 -32 18 -32 4 0 -5 -11 -10 -24 -10 -14 0 -28 5 -31 10 -8 13 -16 12 -39 -5z m184 -39 c0 -3 -4 -8 -10 -11 -5 -3 -10 -1 -10 4 0 6 5 11 10 11 6 0 10 -2 10 -4z" id="svg_27" fill="#ffffff" fill-opacity="1"/>
<path d="M1310 1858 c-24 -39 -26 -91 -5 -108 9 -7 32 -14 51 -15 20 -1 39 -6 42 -12 10 -15 32 4 55 46 19 37 16 48 -20 62 -15 6 -23 15 -20 23 6 15 -9 16 -30 3 -7 -5 -13 -4 -13 0 0 5 -9 14 -20 21 -18 11 -22 9 -40 -20z" id="svg_28" fill="#ffffff" fill-opacity="1"/>
<path d="M908 1836 c-10 -7 -18 -25 -18 -39 0 -15 -6 -27 -15 -29 -13 -2 -11 -9 8 -38 23 -33 28 -35 85 -36 l60 -2 -4 37 c-8 75 -11 84 -29 87 -11 2 -25 10 -31 18 -14 19 -33 20 -56 2z" id="svg_29" fill="#ffffff" fill-opacity="1"/>
<path d="M1486 1738 c-21 -22 -36 -41 -34 -42 1 -1 19 -15 39 -32 29 -25 43 -30 78 -28 24 1 51 10 63 20 11 11 23 18 27 17 14 -6 5 15 -19 43 -22 26 -74 55 -106 60 -6 1 -28 -16 -48 -38z m104 2 c0 -5 -4 -10 -9 -10 -6 0 -13 5 -16 10 -3 6 1 10 9 10 9 0 16 -4 16 -10z" id="svg_30" fill="#ffffff" fill-opacity="1"/>
<path d="M2172 1748 c-13 -18 -26 -60 -23 -76 5 -27 -32 -6 -50 28 -11 19 -19 31 -19 27 0 -4 -9 -3 -20 3 -16 9 -20 8 -21 -7 0 -11 -3 -13 -6 -5 -7 17 -23 15 -23 -3 0 -8 -7 -15 -15 -15 -8 0 -19 -9 -25 -20 -6 -11 -18 -20 -28 -21 -12 0 -11 -3 6 -10 13 -5 20 -14 17 -19 -4 -6 -4 -28 0 -49 5 -31 12 -39 39 -49 19 -7 40 -10 47 -7 67 23 71 26 61 38 -7 8 -7 18 -2 27 5 8 5 21 -1 31 -5 11 -5 20 0 24 15 9 20 -8 15 -48 -2 -20 0 -39 6 -42 10 -6 -25 -39 -65 -61 -25 -14 -29 -33 -14 -70 16 -38 13 -55 -13 -77 -15 -12 -21 -28 -20 -52 1 -31 -22 -95 -65 -181 -15 -30 -67 -59 -85 -48 -5 3 -3 16 5 28 8 12 16 44 18 72 4 47 3 49 -21 49 -18 0 -25 6 -25 19 0 11 6 21 13 24 7 2 11 -1 10 -8 -2 -7 7 -16 19 -20 19 -8 25 -4 43 26 12 18 25 34 30 34 4 0 10 9 13 20 3 11 13 20 22 20 9 0 14 4 11 9 -3 5 4 12 17 15 21 6 21 7 4 20 -13 10 -15 16 -7 21 9 6 9 9 1 15 -7 4 -13 16 -14 27 -1 14 -14 27 -37 37 l-36 16 -45 -43 c-39 -38 -44 -47 -43 -85 1 -23 4 -45 8 -49 10 -11 7 -23 -7 -23 -17 0 -37 42 -37 75 0 29 -39 59 -64 49 -21 -8 -21 -20 1 -28 12 -5 14 -9 5 -18 -7 -7 -12 -22 -12 -35 0 -13 -6 -23 -13 -23 -14 0 -57 -89 -60 -122 -2 -22 -13 -24 -21 -3 -3 8 -10 15 -16 15 -18 0 -11 -22 15 -41 21 -17 23 -23 13 -44 -8 -19 -8 -28 2 -40 24 -29 -9 -16 -49 20 -59 53 -55 42 7 -20 30 -30 58 -55 62 -55 4 0 10 -8 12 -18 7 -24 110 -74 159 -76 34 -2 44 2 69 31 23 26 40 35 76 40 48 6 54 2 125 -84 15 -20 27 -16 67 22 20 20 45 43 55 53 11 9 28 34 38 55 18 35 22 37 53 31 20 -3 36 -1 40 5 4 6 17 11 30 11 12 0 37 15 56 35 24 25 37 32 46 24 8 -7 39 -6 98 2 73 10 87 15 92 33 3 12 14 30 24 41 20 21 36 114 23 130 -42 53 -72 38 -65 -33 3 -35 0 -51 -12 -61 -13 -11 -16 -9 -22 13 -3 15 -4 35 -1 46 3 11 1 23 -4 26 -5 3 -9 1 -9 -4 0 -12 -83 -52 -109 -52 -23 0 -26 -11 -11 -41 8 -15 7 -25 -7 -44 -10 -13 -21 -25 -26 -25 -8 0 -3 55 8 83 5 12 2 17 -9 17 -9 0 -16 4 -16 10 0 5 -15 16 -34 24 -41 17 -46 25 -35 54 6 15 17 22 34 22 26 0 71 35 56 44 -4 3 -6 28 -5 56 3 47 0 54 -30 84 -64 64 -116 83 -116 42 0 -8 -5 -16 -11 -18 -16 -5 7 -48 25 -48 23 0 49 -37 39 -55 -8 -14 -11 -14 -28 5 -10 11 -24 20 -32 20 -7 0 -13 9 -13 20 0 23 -10 26 -28 8 -10 -10 -15 -10 -22 2 -6 10 -3 21 10 35 11 12 20 31 20 43 0 11 4 24 10 27 13 8 -42 84 -62 85 -9 0 -20 5 -23 10 -9 14 -31 13 -43 -2z m68 -208 c0 -16 -2 -30 -5 -30 -9 0 -26 41 -20 50 12 20 25 9 25 -20z m-40 -10 c0 -5 -4 -10 -10 -10 -5 0 -10 5 -10 10 0 6 5 10 10 10 6 0 10 -4 10 -10z m49 -86 c28 -15 51 -31 51 -37 0 -5 6 -5 14 2 19 16 50 3 35 -15 -6 -8 -19 -14 -29 -14 -23 0 -90 28 -90 38 0 4 -16 14 -36 21 -27 10 -33 16 -23 22 20 12 22 12 78 -17z m-9 -67 c0 -7 -9 -23 -19 -36 -15 -19 -16 -29 -8 -42 6 -10 8 -22 4 -26 -24 -23 -28 48 -6 104 9 24 29 23 29 0z m130 -82 c0 -8 -4 -15 -10 -15 -5 0 -10 7 -10 15 0 8 5 15 10 15 6 0 10 -7 10 -15z m-205 -52 c-2 -16 -4 -35 -4 -43 -1 -10 -12 -17 -31 -18 -35 -3 -39 8 -10 26 11 7 20 18 20 25 0 11 19 37 26 37 2 0 1 -12 -1 -27z m195 16 c0 -15 -39 -69 -51 -69 -15 0 -10 20 14 50 23 30 37 37 37 19z m-279 -69 c14 0 11 -17 -4 -23 -7 -3 -19 4 -26 15 -11 18 -11 20 4 14 9 -3 21 -6 26 -6z m109 -46 c0 -17 -10 -17 -32 0 -25 18 -22 24 7 18 14 -2 25 -11 25 -18z m36 -30 c-15 -16 -25 -8 -19 15 4 15 8 17 17 8 9 -8 10 -15 2 -23z m-8 -49 c0 -30 -15 -42 -31 -26 -8 8 -8 11 2 11 7 0 11 6 8 14 -3 8 -3 17 0 20 13 12 21 5 21 -19z m-328 -45 c0 -5 -2 -10 -4 -10 -3 0 -8 5 -11 10 -3 6 -1 10 4 10 6 0 11 -4 11 -10z m350 1 c0 -14 -18 -23 -30 -16 -6 4 -8 11 -5 16 8 12 35 12 35 0z" id="svg_31" fill="#ffffff" fill-opacity="1"/>
<path d="M1809 1726 c-18 -26 -14 -55 9 -58 80 -8 96 0 85 40 -3 13 -18 23 -42 29 -32 9 -39 7 -52 -11z" id="svg_32" fill="#ffffff" fill-opacity="1"/>
<path d="M1724 1614 c-42 -22 -50 -32 -31 -40 9 -3 17 -12 17 -20 0 -7 8 -18 19 -23 10 -6 21 -21 24 -33 11 -42 79 -56 113 -23 27 26 32 51 22 96 -10 42 -13 45 -42 46 -17 0 -45 3 -62 6 -19 3 -43 0 -60 -9z" id="svg_33" fill="#ffffff" fill-opacity="1"/>
<path d="M1595 1564 c-14 -7 -32 -11 -40 -7 -12 4 -15 -3 -15 -30 0 -20 -4 -39 -10 -42 -12 -7 -8 -30 10 -68 15 -31 63 -48 123 -42 47 4 47 4 53 50 3 26 -1 43 -12 56 -9 10 -17 29 -18 43 0 14 -7 26 -13 26 -7 0 -13 4 -13 9 0 16 -38 19 -65 5z" id="svg_34" fill="#ffffff" fill-opacity="1"/>
</g></g></svg>