<svg id="SvgjsSvg1001" width="288" height="288" xmlns="http://www.w3.org/2000/svg" version="1.1" xmlns:xlink="http://www.w3.org/1999/xlink" xmlns:svgjs="http://svgjs.com/svgjs"><defs id="SvgjsDefs1002"></defs><g id="SvgjsG1008" transform="matrix(0.9167,0,0,0.9167,12.057352151489255,12.430259022903442)"><svg xmlns="http://www.w3.org/2000/svg" enable-background="new 0 0 19.3 6" viewBox="0 0 19.3 6" width="288" height="288"><path fill="#6f7f87" d="M-5.5,3.8C-4.2,4.8-2.8,6,0,6s4.2-1.2,5.5-2.2C6.6,2.8,7.6,2,9.7,2s3,0.8,4.2,1.8c1.3,1,2.7,2.2,5.5,2.2	s4.2-1.2,5.5-2.2l-1.4-0.9c-1.1,1-2.1,1.8-4.2,1.8s-3-0.8-4.2-1.8c-1.2-1-2.7-2.2-5.4-2.2c-2.8,0-4.2,1.2-5.5,2.2
	C3,3.9,2.1,4.7,0,4.7s-3-0.8-4.2-1.8L-5.5,3.8z" class="color70b343 svgShape"></path></svg></g></svg>